#!OML:ASF X:\für Bonn\!DataBase\2005_08_11_Bastian_Final\c3d\Bastian.ASF
:FULLY-SPECIFIED
:DEGREES
159
root -2.80048 16.9898 -2.46341 531.212 46.3442 -173.369
lowerback 26.7091 -3.29592 -5.87466
upperback 19.3806 -1.54618 -1.21182
thorax 7.55312 0.222743 2.44265
lowerneck -16.6171 -13.6746 -23.8615
upperneck -3.12329 -16.0747 40.256
head 8.72104 -5.98239 16.7306
rclavicle 4.6118e-014 -3.10104e-014
rhumerus -29.6558 16.0685 -90.7405
rradius 29.6966
rwrist 1.90014
rhand -9.4914 2.98847
rfingers 7.12502
rthumb 16.4734 -26.3322
lclavicle 4.6118e-014 -3.10104e-014
lhumerus 12.9294 -20.5686 -280.895
lradius 35.6108
lwrist -348.787
lhand -16.2047 -10.0553
lfingers 7.12502
lthumb 10.0027 19.687
rfemur -38.5662 1.07023 21.2165
rtibia 52.5073
rfoot 12.3008 1.92304
rtoes -27.6345
lfemur 8.2095 6.05525 -14.0958
ltibia 38.16
lfoot -21.2672 -14.3339
ltoes -1.66206
160
root -2.73386 16.9826 -2.52666 531.122 46.2231 -173.558
lowerback 26.3806 -3.38156 -5.80824
upperback 19.3666 -1.6532 -1.17178
thorax 7.69129 0.158914 2.46415
lowerneck -16.7171 -13.6789 -23.8586
upperneck -2.96201 -16.1006 40.1428
head 8.77307 -5.98346 16.6715
rclavicle 2.3059e-014 -1.03368e-014
rhumerus -29.7433 16.1813 -90.7031
rradius 29.5652
rwrist 1.74641
rhand -9.57873 3.0609
rfingers 7.12502
rthumb 16.3893 -26.2667
lclavicle 2.3059e-014 -1.03368e-014
lhumerus 12.9854 -20.8396 -280.729
lradius 35.5753
lwrist -348.78
lhand -16.1174 -9.89992
lfingers 7.12502
lthumb 10.0869 19.8383
rfemur -37.9625 1.09318 21.0386
rtibia 51.0903
rfoot 12.6778 1.49189
rtoes -28.078
lfemur 8.63371 6.05759 -14.1731
ltibia 37.8898
lfoot -21.3583 -14.4784
ltoes -1.75651
161
root -2.666 16.9749 -2.58958 531.072 46.1062 -173.713
lowerback 26.0487 -3.46733 -5.71834
upperback 19.3372 -1.76304 -1.11876
thorax 7.81098 0.0937766 2.48618
lowerneck -16.786 -13.676 -23.8854
upperneck -2.80277 -16.1157 40.0239
head 8.81682 -5.98413 16.62
rclavicle -4.6118e-014 6.04305e-014
rhumerus -29.8339 16.3202 -90.6784
rradius 29.4104
rwrist 1.5765
rhand -9.72792 3.14904
rfingers 7.12502
rthumb 16.2456 -26.1903
lclavicle -4.6118e-014 6.04305e-014
lhumerus 12.9759 -21.0025 -280.472
lradius 35.5275
lwrist -348.831
lhand -16.0163 -9.83621
lfingers 7.12502
lthumb 10.1844 19.8973
rfemur -37.3957 1.1373 20.8895
rtibia 49.7413
rfoot 12.9737 1.10925
rtoes -28.615
lfemur 9.03487 6.0285 -14.2315
ltibia 37.6343
lfoot -21.4128 -14.6301
ltoes -1.66085
162
root -2.59809 16.966 -2.6529 531.009 45.9944 -173.834
lowerback 25.7583 -3.5535 -5.56303
upperback 19.3249 -1.85389 -1.08148
thorax 7.92552 0.050755 2.45126
lowerneck -16.8134 -13.6824 -23.886
upperneck -2.69669 -16.1445 39.9381
head 8.84592 -5.99535 16.5726
rclavicle -6.12257e-014 6.91771e-014
rhumerus -29.9194 16.3558 -90.6473
rradius 29.3199
rwrist 1.39908
rhand -9.846 3.26015
rfingers 7.12502
rthumb 16.1319 -26.0885
lclavicle -6.12257e-014 6.91771e-014
lhumerus 12.9924 -21.2037 -280.238
lradius 35.4689
lwrist -348.872
lhand -15.9063 -9.79295
lfingers 7.12502
lthumb 10.2905 19.9353
rfemur -36.8063 1.228 20.747
rtibia 48.4649
rfoot 13.2066 0.63231
rtoes -29.0322
lfemur 9.47718 6.0187 -14.2551
ltibia 37.3873
lfoot -21.5169 -14.7562
ltoes -1.7222
163
root -2.52969 16.9572 -2.71625 530.937 45.8528 -174.012
lowerback 25.4452 -3.64543 -5.46777
upperback 19.3018 -1.96874 -1.02925
thorax 8.04599 -0.0142349 2.46901
lowerneck -16.8495 -13.6776 -23.9204
upperneck -2.58391 -16.1488 39.8433
head 8.87174 -5.9953 16.5361
rclavicle 8.74653e-015 -3.89618e-014
rhumerus -29.9728 16.3403 -90.5466
rradius 29.2167
rwrist 1.29732
rhand -9.89018 3.36003
rfingers 7.12502
rthumb 16.0894 -25.992
lclavicle 8.74653e-015 -3.89618e-014
lhumerus 12.9718 -21.3441 -279.965
lradius 35.4292
lwrist -348.873
lhand -15.8295 -9.73474
lfingers 7.12502
lthumb 10.3646 19.9898
rfemur -36.2833 1.29073 20.5554
rtibia 47.2755
rfoot 13.4292 0.186914
rtoes -29.3931
lfemur 9.87864 5.95521 -14.3406
ltibia 37.1387
lfoot -21.5906 -14.9008
ltoes -1.68744
164
root -2.46 16.948 -2.77934 530.884 45.7215 -174.159
lowerback 25.1355 -3.74147 -5.36561
upperback 19.2924 -2.08445 -0.970492
thorax 8.18289 -0.0784456 2.48954
lowerneck -16.9404 -13.6722 -23.9509
upperneck -2.43115 -16.152 39.7371
head 8.91694 -5.98801 16.4956
rclavicle 3.73715e-014 3.18055e-015
rhumerus -29.9981 16.3687 -90.4357
rradius 29.1726
rwrist 1.0993
rhand -9.89668 3.44395
rfingers 7.12502
rthumb 16.0831 -25.9086
lclavicle 3.73715e-014 3.18055e-015
lhumerus 12.9413 -21.4826 -279.717
lradius 35.4052
lwrist -348.78
lhand -15.744 -9.72986
lfingers 7.12502
lthumb 10.4471 19.9906
rfemur -35.7789 1.33144 20.3883
rtibia 46.1707
rfoot 13.6055 -0.289963
rtoes -29.5053
lfemur 10.2947 5.88848 -14.3978
ltibia 36.8831
lfoot -21.6559 -15.0238
ltoes -1.62266
165
root -2.38983 16.9387 -2.84257 530.844 45.5701 -174.319
lowerback 24.8328 -3.83041 -5.22937
upperback 19.2605 -2.19111 -0.931226
thorax 8.2835 -0.132893 2.46716
lowerneck -16.9355 -13.6548 -23.9311
upperneck -2.35063 -16.1434 39.6426
head 8.91532 -5.98552 16.4485
rclavicle 6.99722e-014 -6.04305e-014
rhumerus -30.0767 16.3643 -90.3702
rradius 29.147
rwrist 0.922376
rhand -9.94758 3.51282
rfingers 7.12502
rthumb 16.0341 -25.8437
lclavicle 6.99722e-014 -6.04305e-014
lhumerus 12.8323 -21.7206 -279.509
lradius 35.4768
lwrist -348.695
lhand -15.7082 -9.68195
lfingers 7.12502
lthumb 10.4817 20.0367
rfemur -35.3335 1.39248 20.1909
rtibia 45.1551
rfoot 13.7525 -0.838839
rtoes -29.4507
lfemur 10.6818 5.81937 -14.47
ltibia 36.6206
lfoot -21.7144 -15.1416
ltoes -1.63195
166
root -2.31897 16.9298 -2.90632 530.828 45.4329 -174.465
lowerback 24.5124 -3.916 -5.09526
upperback 19.2345 -2.29402 -0.879356
thorax 8.40117 -0.187109 2.45809
lowerneck -16.9354 -13.638 -23.9041
upperneck -2.27092 -16.1347 39.5317
head 8.91007 -5.98323 16.3905
rclavicle 1.98785e-014 -1.90833e-014
rhumerus -30.0827 16.2359 -90.2325
rradius 29.086
rwrist 0.820906
rhand -9.92188 3.65524
rfingers 7.12502
rthumb 16.0589 -25.6993
lclavicle 1.98785e-014 -1.90833e-014
lhumerus 12.6473 -21.977 -279.287
lradius 35.6681
lwrist -348.561
lhand -15.6887 -9.56079
lfingers 7.12502
lthumb 10.5005 20.1569
rfemur -34.9283 1.49144 19.9942
rtibia 44.2149
rfoot 13.8806 -1.4396
rtoes -29.2318
lfemur 11.0622 5.72634 -14.5381
ltibia 36.3549
lfoot -21.7434 -15.2621
ltoes -1.4497
167
root -2.24821 16.9224 -2.96973 530.84 45.2716 -174.614
lowerback 24.2074 -4.00929 -4.97057
upperback 19.1979 -2.41269 -0.822516
thorax 8.50149 -0.250952 2.46157
lowerneck -16.9593 -13.6119 -23.8654
upperneck -2.18051 -16.1108 39.4238
head 8.907 -5.97028 16.3369
rclavicle 6.67916e-014 -1.19271e-014
rhumerus -30.0052 15.9347 -90.0348
rradius 28.9376
rwrist 0.905997
rhand -9.82151 3.79111
rfingers 7.12502
rthumb 16.1555 -25.5556
lclavicle 6.67916e-014 -1.19271e-014
lhumerus 12.4646 -22.1406 -279.018
lradius 35.7742
lwrist -348.544
lhand -15.6779 -9.52917
lfingers 7.12502
lthumb 10.5109 20.188
rfemur -34.5745 1.55772 19.7921
rtibia 43.3434
rfoot 13.9848 -2.01702
rtoes -28.8193
lfemur 11.4034 5.61746 -14.6178
ltibia 36.0834
lfoot -21.7827 -15.3443
ltoes -1.45304
168
root -2.17605 16.9148 -3.03333 530.905 45.1272 -174.737
lowerback 23.8906 -4.08761 -4.83404
upperback 19.1355 -2.52089 -0.742526
thorax 8.57488 -0.312545 2.48096
lowerneck -16.9168 -13.5764 -23.8645
upperneck -2.11914 -16.0718 39.3226
head 8.88269 -5.95921 16.2987
rclavicle -1.11319e-014 -1.11319e-014
rhumerus -29.9904 15.6847 -89.8248
rradius 28.8499
rwrist 0.966509
rhand -9.75847 3.91181
rfingers 7.12502
rthumb 16.2162 -25.43
lclavicle -1.11319e-014 -1.11319e-014
lhumerus 12.2163 -22.3099 -278.695
lradius 35.8636
lwrist -348.607
lhand -15.6873 -9.51914
lfingers 7.12502
lthumb 10.5018 20.1985
rfemur -34.2806 1.6495 19.6102
rtibia 42.5356
rfoot 14.1071 -2.48043
rtoes -28.2549
lfemur 11.714 5.52207 -14.6758
ltibia 35.808
lfoot -21.8126 -15.4462
ltoes -1.52079
169
root -2.10402 16.9079 -3.09671 530.961 44.9707 -174.852
lowerback 23.6148 -4.15816 -4.72467
upperback 19.0852 -2.61942 -0.633827
thorax 8.64873 -0.372048 2.54621
lowerneck -16.8981 -13.5474 -23.8414
upperneck -2.07506 -16.0334 39.1936
head 8.84968 -5.94707 16.2379
rclavicle 3.18055e-014 -2.3059e-014
rhumerus -29.9517 15.4392 -89.5736
rradius 28.8085
rwrist 1.03091
rhand -9.68214 4.00071
rfingers 7.12502
rthumb 16.2897 -25.3351
lclavicle 3.18055e-014 -2.3059e-014
lhumerus 11.9581 -22.3155 -278.236
lradius 35.9215
lwrist -348.877
lhand -15.6268 -9.53201
lfingers 7.12502
lthumb 10.5602 20.1827
rfemur -33.9916 1.73678 19.4238
rtibia 41.7893
rfoot 14.2062 -2.83918
rtoes -27.7389
lfemur 12.038 5.40922 -14.724
ltibia 35.5247
lfoot -21.8078 -15.5807
ltoes -1.23216
